<svg width="276" height="298" viewBox="0 0 276 298" fill="none" xmlns="http://www.w3.org/2000/svg">
<g id="rabbit-purple">
<path id="Ellipse 5" d="M237.75 83.9716C227.396 97.4845 215.691 107.78 205.163 113.517C199.898 116.386 194.96 118.097 190.654 118.523C186.352 118.948 182.73 118.089 180.007 115.88C177.284 113.671 175.626 110.246 175.025 105.844C174.423 101.435 174.887 96.0948 176.37 90.1574C179.335 78.2849 186.333 64.1703 196.687 50.6575C207.041 37.1446 218.746 26.8488 229.274 21.1121C234.539 18.2432 239.477 16.5319 243.783 16.106C248.084 15.6806 251.707 16.5397 254.43 18.7491C257.153 20.9584 258.81 24.3826 259.412 28.7855C260.014 33.1936 259.549 38.5343 258.067 44.4717C255.102 56.3442 248.104 70.4587 237.75 83.9716Z" fill="white" stroke="black" stroke-width="1.5"/>
<path id="Ellipse 7" d="M223.139 82.8274C215.185 93.2078 206.702 101.526 199.435 106.591C195.798 109.126 192.502 110.82 189.754 111.568C186.99 112.321 184.933 112.08 183.591 110.991C182.25 109.903 181.542 107.9 181.608 104.96C181.674 102.036 182.506 98.3419 184.053 94.1111C187.143 85.6583 193.025 75.2291 200.979 64.8487C208.932 54.4683 217.416 46.1497 224.682 41.0851C228.319 38.5502 231.616 36.8556 234.364 36.1077C237.127 35.3555 239.185 35.5964 240.526 36.6848C241.868 37.7731 242.576 39.7756 242.51 42.7164C242.444 45.6401 241.612 49.3342 240.065 53.565C236.974 62.0178 231.093 72.4469 223.139 82.8274Z" fill="#E6A1F1" stroke="black" stroke-width="1.5"/>
<path id="Ellipse 6" d="M79.2226 49.6876C89.5615 63.2153 96.5484 77.3464 99.5068 89.2337C100.986 95.1786 101.449 100.526 100.847 104.94C100.244 109.349 98.5882 112.779 95.8673 114.992C93.1465 117.205 89.5277 118.066 85.2314 117.642C80.93 117.217 75.9974 115.504 70.739 112.633C60.2243 106.892 48.5345 96.5865 38.1955 83.0588C27.8566 69.5312 20.8697 55.4001 17.9113 43.5127C16.4318 37.5679 15.9688 32.2202 16.5716 27.8061C17.1738 23.3971 18.8299 19.9678 21.5508 17.7547C24.2716 15.5416 27.8904 14.6802 32.1868 15.1048C36.4881 15.5299 41.4208 17.242 46.6791 20.1131C57.1939 25.8542 68.8837 36.16 79.2226 49.6876Z" fill="white" stroke="black" stroke-width="1.5"/>
<path id="Ellipse 8" d="M76.0891 64.2826C84.2379 74.5042 90.3159 84.8154 93.5659 93.2056C95.1926 97.4051 96.0945 101.082 96.2155 104.004C96.3372 106.943 95.6675 108.959 94.3466 110.074C93.0257 111.189 90.9729 111.47 88.1956 110.773C85.4345 110.079 82.1063 108.45 78.4219 105.987C71.0606 101.067 62.4215 92.9174 54.2728 82.6958C46.124 72.4742 40.0459 62.163 36.796 53.7727C35.1693 49.5732 34.2674 45.8963 34.1464 42.9745C34.0247 40.0356 34.6944 38.0192 36.0153 36.9044C37.3362 35.7895 39.389 35.5081 42.1662 36.2057C44.9274 36.8992 48.2556 38.5283 51.94 40.991C59.3013 45.9113 67.9404 54.061 76.0891 64.2826Z" fill="#E6A1F1" stroke="black" stroke-width="1.5"/>
<path id="Ellipse 1" d="M214.844 150.036C214.844 188.885 181.109 220.464 139.384 220.464C97.6596 220.464 63.9241 188.885 63.9241 150.036C63.9241 111.188 97.6596 79.6086 139.384 79.6086C181.109 79.6086 214.844 111.188 214.844 150.036Z" fill="white" stroke="black" stroke-width="1.5"/>
<path id="Vector 1" d="M106.05 163.371C111.127 151.85 118.687 151.692 122.228 164.264" stroke="black" stroke-width="1.5"/>
<path id="Vector 2" d="M155.036 162.988C159.405 151.164 166.941 150.521 171.236 162.842" stroke="black" stroke-width="1.5"/>
<path id="Ellipse 2" d="M142.645 177.176C142.645 179.771 141.025 181.547 139.384 181.547C137.743 181.547 136.123 179.771 136.123 177.176C136.123 174.581 137.743 172.805 139.384 172.805C141.025 172.805 142.645 174.581 142.645 177.176Z" fill="#E6A1F1" stroke="black" stroke-width="1.5"/>
<ellipse id="Ellipse 3" cx="108.8" cy="177.688" rx="12.5345" ry="5.63276" fill="#E6A1F1"/>
<ellipse id="Ellipse 4" cx="170.47" cy="177.688" rx="12.0332" ry="5.63276" fill="#E6A1F1"/>
<path id="Vector 3" d="M139.384 181.272V188.486C133.581 197.268 125.601 196.118 122.337 194.445" stroke="black" stroke-width="1.5"/>
<path id="Vector 4" d="M139.384 181.272V188.486C145.187 197.268 153.167 196.118 156.431 194.445" stroke="black" stroke-width="1.5"/>
<rect id="Rectangle 1" x="131.109" y="218.891" width="15.547" height="14.8862" fill="#E6A1F1" stroke="black" stroke-width="1.5"/>
<path id="Vector 6" d="M77.9857 207.135C82.6385 180.238 102.251 207.135 133.368 220.058V232.871C124.549 239.76 104.342 252.96 94.0626 250.645C88.0156 247.476 73.7528 231.604 77.9857 207.135Z" fill="#E6A1F1" stroke="black" stroke-width="1.5"/>
<path id="Vector 9" d="M200.783 207.348C196.131 179.953 176.518 207.348 145.401 220.511V233.561C154.22 240.578 174.427 254.022 184.706 251.664C190.753 248.436 205.016 232.271 200.783 207.348Z" fill="#E6A1F1" stroke="black" stroke-width="1.5"/>
<path id="Vector 7" d="M110.304 287.543C110.304 284.677 114.742 270.062 132.493 234.528H136.376C132.031 250.576 123.174 285.537 122.508 297L120.012 279.233L110.304 287.543Z" fill="#E6A1F1" stroke="black" stroke-width="1.5"/>
<path id="Vector 8" d="M167.461 287.543C167.461 284.677 163.194 270.062 146.126 234.528H142.392C146.571 250.576 155.087 285.537 155.727 297L158.127 279.233L167.461 287.543Z" fill="#E6A1F1" stroke="black" stroke-width="1.5"/>
<path id="Vector 10" d="M146.712 222.092C166.496 218.381 175.438 217.892 177.436 218.112" stroke="black" stroke-width="1.5"/>
<path id="Vector 15" d="M132.851 222.092C113.067 218.381 104.125 217.892 102.126 218.112" stroke="black" stroke-width="1.5"/>
<path id="Vector 12" d="M147.138 224.334C160.79 228.495 166.411 231.441 167.515 232.394" stroke="black" stroke-width="1.5"/>
<path id="Vector 14" d="M132.597 224.334C118.943 228.496 113.321 231.442 112.216 232.395" stroke="black" stroke-width="1.5"/>
</g>
</svg>
